<svg width="347" height="347" viewBox="0 0 347 347" fill="none" xmlns="http://www.w3.org/2000/svg">
<g opacity="0.025">
<path fill-rule="evenodd" clip-rule="evenodd" d="M173.5 347C269.321 347 347 269.321 347 173.5C347 77.6786 269.321 0 173.5 0C77.6786 0 0 77.6786 0 173.5C0 269.321 77.6786 347 173.5 347ZM246.37 152.68C275.116 152.68 298.42 129.376 298.42 100.63C298.42 71.8835 275.116 48.5799 246.37 48.5799C217.624 48.5799 194.32 71.8835 194.32 100.63C194.32 129.376 217.624 152.68 246.37 152.68ZM168.295 204.73C182.668 204.73 194.32 193.078 194.32 178.705C194.32 164.332 182.668 152.68 168.295 152.68C153.922 152.68 142.27 164.332 142.27 178.705C142.27 193.078 153.922 204.73 168.295 204.73Z" fill="white"/>
<path fill-rule="evenodd" clip-rule="evenodd" d="M73.1726 123.498C49.1357 128.944 24.9936 141.652 0.777453 156.967C0.263043 162.409 0 167.924 0 173.5C0 269.321 77.6786 347 173.5 347C260.716 347 332.902 282.647 345.164 198.834C336.015 196.936 326.869 194.639 317.726 191.885C291.432 184.031 265.223 172.216 239.057 160.421C183.709 135.47 128.55 110.604 73.1726 123.498ZM168.295 204.73C182.668 204.73 194.32 193.078 194.32 178.705C194.32 164.332 182.668 152.68 168.295 152.68C153.922 152.68 142.27 164.332 142.27 178.705C142.27 193.078 153.922 204.73 168.295 204.73Z" fill="#B4B4B4"/>
<path d="M327.899 252.72C299.117 308.704 240.781 347 173.5 347C128.563 347 87.6167 329.916 56.8005 301.889C66.9804 305.188 77.1456 306.901 87.2887 306.169C113.476 304.306 139.664 286.218 165.742 268.205C188.148 252.728 210.473 237.307 232.647 232.282C264.447 224.878 296.124 238.421 327.899 252.72Z" fill="#939393"/>
</g>
</svg>
