<svg width="274" height="78" viewBox="0 0 274 78" fill="none" xmlns="http://www.w3.org/2000/svg">
<path d="M78 39C78 60.5391 60.5391 78 39 78C17.4609 78 0 60.5391 0 39C0 17.4609 17.4609 0 39 0C60.5391 0 78 17.4609 78 39Z" fill="#0094FF"/>
<path d="M0.174759 35.2837C5.61815 31.8411 11.0449 28.9846 16.448 27.7604C28.896 24.862 41.2947 30.4514 53.7361 36.06C59.6179 38.7114 65.5091 41.3672 71.4197 43.1326C73.4748 43.7518 75.5307 44.268 77.5872 44.6946C74.831 63.5344 58.6048 78 39 78C17.4609 78 0 60.5391 0 39C0 37.7466 0.0591278 36.5069 0.174759 35.2837Z" fill="#0085E6"/>
<path d="M73.7064 56.8074C67.2366 69.3916 54.1236 78 39 78C28.8989 78 19.6947 74.1599 12.7678 67.8598C15.056 68.6013 17.341 68.9863 19.621 68.8217C25.5076 68.4031 31.3941 64.3371 37.256 60.288C42.2925 56.809 47.3109 53.3427 52.2953 52.2133C59.4433 50.549 66.5639 53.5932 73.7064 56.8074Z" fill="#0078CF"/>
<path d="M67.08 22.62C67.08 29.0817 61.8417 34.32 55.38 34.32C48.9182 34.32 43.68 29.0817 43.68 22.62C43.68 16.1583 48.9182 10.92 55.38 10.92C61.8417 10.92 67.08 16.1583 67.08 22.62Z" fill="white"/>
<path d="M43.68 40.17C43.68 43.4009 41.0608 46.02 37.83 46.02C34.5991 46.02 31.98 43.4009 31.98 40.17C31.98 36.9391 34.5991 34.32 37.83 34.32C41.0608 34.32 43.68 36.9391 43.68 40.17Z" fill="white"/>
<path d="M93.7999 35.74V18.04H97.9999V34.57C97.9999 34.95 98.0399 35.26 98.1199 35.5C98.2199 35.72 98.3799 35.87 98.5999 35.95C98.8399 36.03 99.0299 36.08 99.1699 36.1C99.3099 36.12 99.5399 36.13 99.8599 36.13H107.39V40H98.3599C95.3199 40 93.7999 38.58 93.7999 35.74Z" fill="#005EA3"/>
<path d="M109.912 35.68V22.6C109.912 21.86 110.012 21.21 110.212 20.65C110.412 20.09 110.672 19.65 110.992 19.33C111.312 19.01 111.682 18.75 112.102 18.55C112.542 18.33 112.962 18.19 113.362 18.13C113.782 18.07 114.222 18.04 114.682 18.04C119.842 18.18 123.062 18.34 124.342 18.52V22H115.672C115.292 22 114.992 22.04 114.772 22.12C114.552 22.2 114.392 22.34 114.292 22.54C114.212 22.74 114.162 22.91 114.142 23.05C114.122 23.19 114.112 23.4 114.112 23.68V27.1L122.992 27.4V30.88L114.112 31.15V34.57C114.112 34.95 114.162 35.26 114.262 35.5C114.362 35.72 114.522 35.88 114.742 35.98C114.962 36.06 115.142 36.11 115.282 36.13C115.442 36.13 115.672 36.13 115.972 36.13H124.342V39.58C123.842 39.64 122.812 39.72 121.252 39.82C119.692 39.9 118.252 39.96 116.932 40L114.982 40.09C114.522 40.11 114.092 40.1 113.692 40.06C113.292 40.02 112.852 39.91 112.372 39.73C111.892 39.55 111.472 39.31 111.112 39.01C110.772 38.71 110.482 38.28 110.242 37.72C110.022 37.14 109.912 36.46 109.912 35.68Z" fill="#005EA3"/>
<path d="M126.213 18.04H130.683L135.573 34.48L140.733 18.04H145.203L137.973 40H133.113L126.213 18.04Z" fill="#005EA3"/>
<path d="M147.53 40V18.04H151.73V40H147.53Z" fill="#005EA3"/>
<path d="M154.104 40L161.514 18.04H166.284L173.424 40H168.954L167.394 35.14H160.194L158.604 40H154.104ZM161.304 31.42H166.404L163.944 23.56L161.304 31.42Z" fill="#005EA3"/>
<path d="M174.785 21.91V18.04H191.015V21.91H184.925V40H180.725V21.91H174.785Z" fill="#005EA3"/>
<path d="M193.439 40V18.04H197.639V27.46H205.169V18.04H209.369V40H205.169V31.3H197.639V40H193.439Z" fill="#005EA3"/>
<path d="M211.731 40L219.141 18.04H223.911L231.051 40H226.581L225.021 35.14H217.821L216.231 40H211.731ZM218.931 31.42H224.031L221.571 23.56L218.931 31.42Z" fill="#005EA3"/>
<path d="M233.282 40V18.04H237.542L246.242 32.23V18.04H250.442V40H246.242L237.512 25.96V40H233.282Z" fill="#005EA3"/>
<path d="M92.5439 47.288H94.9279L97.5199 55.976L99.6319 47.288H102.032L101.216 50.312L103.072 56.024L105.216 47.288H107.584L104.368 59H101.776L100.192 54.2L98.8159 59H96.2239L92.5439 47.288Z" fill="#005EA3"/>
<path d="M108.867 54.712C108.867 53.976 108.91 53.3627 108.995 52.872C109.091 52.3707 109.224 51.96 109.395 51.64C109.566 51.3093 109.806 51.0587 110.115 50.888C110.424 50.7173 110.766 50.6 111.139 50.536C111.523 50.472 112.003 50.44 112.579 50.44C112.963 50.44 113.288 50.4507 113.555 50.472C113.822 50.4827 114.088 50.5147 114.355 50.568C114.632 50.6107 114.856 50.68 115.027 50.776C115.198 50.8613 115.363 50.984 115.523 51.144C115.683 51.2933 115.806 51.48 115.891 51.704C115.987 51.9173 116.056 52.1787 116.099 52.488C116.152 52.7867 116.179 53.1333 116.179 53.528C116.179 54.2747 115.982 54.8187 115.587 55.16C115.192 55.5013 114.6 55.672 113.811 55.672H111.107C111.107 56.1627 111.176 56.5307 111.315 56.776C111.464 57.0107 111.646 57.1547 111.859 57.208C112.083 57.2613 112.43 57.288 112.899 57.288C114.211 57.288 115.251 57.2293 116.019 57.112V58.632C115.219 58.9307 113.768 59.08 111.667 59.08C111.123 59.08 110.67 59 110.307 58.84C109.955 58.68 109.672 58.4187 109.459 58.056C109.246 57.6933 109.091 57.2453 108.995 56.712C108.91 56.1787 108.867 55.512 108.867 54.712ZM111.107 54.056H113.235C113.704 54.056 113.939 53.8427 113.939 53.416C113.939 52.8827 113.864 52.5413 113.715 52.392C113.576 52.232 113.24 52.152 112.707 52.152C112.366 52.152 112.11 52.168 111.939 52.2C111.779 52.2213 111.619 52.296 111.459 52.424C111.31 52.5413 111.208 52.728 111.155 52.984C111.112 53.24 111.096 53.5973 111.107 54.056Z" fill="#005EA3"/>
<path d="M117.801 59V46.44H120.025V50.936C120.207 50.84 120.415 50.76 120.649 50.696C120.884 50.6213 121.113 50.5627 121.337 50.52C121.561 50.4773 121.78 50.4453 121.993 50.424C122.217 50.392 122.42 50.376 122.601 50.376C123.06 50.376 123.455 50.4507 123.785 50.6C124.127 50.7387 124.399 50.9307 124.601 51.176C124.804 51.4107 124.964 51.72 125.081 52.104C125.199 52.488 125.273 52.888 125.305 53.304C125.348 53.72 125.369 54.216 125.369 54.792C125.369 56.168 125.156 57.2293 124.729 57.976C124.303 58.7227 123.593 59.096 122.601 59.096C122.143 59.096 121.679 59 121.209 58.808C120.74 58.616 120.351 58.392 120.041 58.136L119.641 59H117.801ZM120.041 56.664C120.585 57.0053 121.247 57.176 122.025 57.176C122.271 57.176 122.473 57.1067 122.633 56.968C122.793 56.8187 122.916 56.5627 123.001 56.2C123.087 55.8267 123.129 55.3307 123.129 54.712C123.129 54.008 123.081 53.464 122.985 53.08C122.9 52.696 122.783 52.4453 122.633 52.328C122.484 52.2 122.281 52.136 122.025 52.136C121.631 52.136 121.273 52.1627 120.953 52.216C120.633 52.2587 120.329 52.3387 120.041 52.456V56.664Z" fill="#005EA3"/>
<path d="M137.095 49.272C136.38 49.272 136.023 49.4427 136.023 49.784C136.023 50.0293 136.188 50.3813 136.519 50.84L139.223 54.536L141.159 52.712L141.943 53.656L140.983 55.368L140.391 56.072L142.567 59H139.943L138.807 57.464L137.767 58.392C137.244 58.8613 136.583 59.096 135.783 59.096C135.367 59.096 134.946 59.016 134.519 58.856C133.9 58.632 133.394 58.2213 132.999 57.624C132.594 57.0267 132.391 56.408 132.391 55.768C132.391 54.7653 132.839 53.8747 133.735 53.096L134.839 52.12L134.023 50.936C133.671 50.4347 133.495 49.9547 133.495 49.496C133.495 48.9093 133.682 48.4187 134.055 48.024C134.439 47.6187 134.85 47.384 135.287 47.32C135.778 47.2453 136.348 47.208 136.999 47.208C137.65 47.208 138.556 47.352 139.719 47.64V49.272H137.095ZM135.127 54.456C134.711 54.808 134.503 55.1493 134.503 55.48C134.503 55.8107 134.599 56.0987 134.791 56.344C134.983 56.5787 135.17 56.7493 135.351 56.856C135.543 56.952 135.698 57 135.815 57H136.071C136.316 56.968 136.546 56.8507 136.759 56.648L137.575 55.864L135.959 53.72L135.127 54.456Z" fill="#005EA3"/>
<path d="M149.621 51.224V50.216C149.621 49.768 149.675 49.368 149.781 49.016C149.888 48.664 150.032 48.376 150.213 48.152C150.395 47.928 150.619 47.7467 150.885 47.608C151.163 47.4587 151.451 47.3573 151.749 47.304C152.059 47.24 152.405 47.2027 152.789 47.192C153.6 47.1707 154.437 47.208 155.301 47.304C156.165 47.4 156.837 47.5173 157.317 47.656V49.416C156.101 49.3093 154.795 49.256 153.397 49.256C152.832 49.2453 152.432 49.3093 152.197 49.448C151.973 49.576 151.861 49.8907 151.861 50.392V50.968C151.861 51.416 151.952 51.7147 152.133 51.864C152.315 52.0133 152.64 52.088 153.109 52.088H154.965C155.243 52.088 155.499 52.1147 155.733 52.168C155.979 52.2213 156.187 52.296 156.357 52.392C156.539 52.488 156.699 52.6 156.837 52.728C156.987 52.856 157.109 53 157.205 53.16C157.312 53.32 157.397 53.4853 157.461 53.656C157.536 53.816 157.589 53.9867 157.621 54.168C157.664 54.3493 157.691 54.5253 157.701 54.696C157.723 54.856 157.733 55.0213 157.733 55.192V55.976C157.733 56.488 157.669 56.936 157.541 57.32C157.413 57.704 157.248 58.008 157.045 58.232C156.853 58.456 156.608 58.6373 156.309 58.776C156.021 58.9147 155.733 59.0053 155.445 59.048C155.157 59.1013 154.843 59.128 154.501 59.128C152.571 59.128 151.061 58.968 149.973 58.648V56.888C151.147 57.0053 152.507 57.064 154.053 57.064C154.256 57.064 154.427 57.0533 154.565 57.032C154.715 57.0107 154.864 56.968 155.013 56.904C155.173 56.84 155.291 56.7387 155.365 56.6C155.451 56.4507 155.493 56.2693 155.493 56.056V55.432C155.493 55.0587 155.419 54.7813 155.269 54.6C155.12 54.4187 154.843 54.328 154.437 54.328H152.645C150.629 54.3173 149.621 53.2827 149.621 51.224Z" fill="#005EA3"/>
<path d="M159.267 54.872C159.267 53.9973 159.331 53.2773 159.459 52.712C159.587 52.1467 159.811 51.6933 160.131 51.352C160.451 51.0107 160.846 50.7707 161.315 50.632C161.795 50.4933 162.403 50.424 163.139 50.424C164.6 50.424 165.608 50.744 166.163 51.384C166.728 52.024 167.011 53.1867 167.011 54.872C167.011 56.4613 166.734 57.56 166.179 58.168C165.635 58.776 164.622 59.08 163.139 59.08C162.552 59.08 162.04 59.032 161.603 58.936C161.176 58.8293 160.808 58.6747 160.499 58.472C160.2 58.2693 159.96 58.0027 159.779 57.672C159.598 57.3307 159.464 56.936 159.379 56.488C159.304 56.0293 159.267 55.4907 159.267 54.872ZM161.507 54.872C161.507 55.416 161.534 55.848 161.587 56.168C161.64 56.488 161.736 56.7333 161.875 56.904C162.024 57.064 162.19 57.1653 162.371 57.208C162.552 57.2507 162.808 57.272 163.139 57.272C163.427 57.272 163.646 57.2613 163.795 57.24C163.955 57.2187 164.104 57.1653 164.243 57.08C164.392 56.9947 164.499 56.8613 164.563 56.68C164.638 56.4987 164.691 56.2693 164.723 55.992C164.755 55.704 164.771 55.3307 164.771 54.872C164.771 54.3813 164.755 53.9867 164.723 53.688C164.702 53.3787 164.659 53.1227 164.595 52.92C164.531 52.7067 164.43 52.5573 164.291 52.472C164.152 52.376 163.998 52.312 163.827 52.28C163.656 52.2373 163.427 52.216 163.139 52.216C162.904 52.216 162.712 52.2267 162.563 52.248C162.414 52.2693 162.27 52.3173 162.131 52.392C161.992 52.456 161.886 52.5467 161.811 52.664C161.747 52.7707 161.688 52.9253 161.635 53.128C161.582 53.3307 161.544 53.5707 161.523 53.848C161.512 54.1253 161.507 54.4667 161.507 54.872Z" fill="#005EA3"/>
<path d="M168.268 52.216V50.776L169.596 50.504V48.92C169.596 48.536 169.639 48.2 169.724 47.912C169.809 47.624 169.943 47.368 170.124 47.144C170.316 46.9093 170.577 46.7333 170.908 46.616C171.239 46.488 171.639 46.424 172.108 46.424C172.908 46.424 173.623 46.552 174.252 46.808V48.136L172.716 48.12C172.545 48.12 172.401 48.1413 172.284 48.184C172.167 48.2267 172.076 48.2747 172.012 48.328C171.959 48.3707 171.916 48.4667 171.884 48.616C171.863 48.7547 171.847 48.872 171.836 48.968C171.836 49.0533 171.836 49.2133 171.836 49.448V50.504H173.772V52.216H171.836V59H169.596V52.216H168.268Z" fill="#005EA3"/>
<path d="M175.121 52.2V50.952L176.497 50.488L176.865 48.12H178.737V50.488H180.641V52.2H178.737V55.608C178.737 56.0027 178.769 56.3227 178.833 56.568C178.897 56.8027 178.977 56.968 179.073 57.064C179.169 57.1493 179.297 57.224 179.457 57.288C180.097 57.512 180.455 57.624 180.529 57.624V59H178.577C177.916 59 177.404 58.7653 177.041 58.296C176.679 57.816 176.497 57.0373 176.497 55.96V52.2H175.121Z" fill="#005EA3"/>
<path d="M181.615 50.504H184.015L185.711 56.376L187.231 50.504H189.471L188.879 52.792L190.287 56.376L191.967 50.504H194.367L191.615 59H189.119L187.839 55.928L186.879 59H184.335L181.615 50.504Z" fill="#005EA3"/>
<path d="M195.474 56.84V56.04C195.474 55.7093 195.516 55.4107 195.602 55.144C195.698 54.8773 195.842 54.632 196.034 54.408C196.226 54.184 196.482 54.0133 196.802 53.896C197.132 53.768 197.522 53.704 197.97 53.704C198.386 53.704 198.796 53.7093 199.202 53.72C199.618 53.72 200.039 53.7147 200.466 53.704C200.476 53.352 200.476 53.1707 200.466 53.16C200.466 52.936 200.439 52.7547 200.386 52.616C200.343 52.4773 200.268 52.3707 200.162 52.296C200.055 52.2213 199.938 52.1733 199.81 52.152C199.682 52.1307 199.522 52.12 199.33 52.12C198.636 52.12 197.447 52.1787 195.762 52.296V50.92C196.711 50.5467 198.002 50.3547 199.634 50.344C200.615 50.344 201.372 50.552 201.906 50.968C202.439 51.3733 202.706 52.0773 202.706 53.08V59H200.93L200.466 58.072C200.423 58.1467 200.284 58.264 200.05 58.424C199.826 58.5733 199.506 58.728 199.09 58.888C198.674 59.0373 198.268 59.1067 197.874 59.096C197.106 59.0747 196.514 58.8453 196.098 58.408C195.682 57.96 195.474 57.4373 195.474 56.84ZM197.714 56.52C197.714 56.84 197.783 57.0533 197.922 57.16C198.06 57.256 198.258 57.304 198.514 57.304C198.642 57.304 198.775 57.2933 198.914 57.272C199.052 57.24 199.18 57.208 199.298 57.176C199.426 57.1333 199.548 57.0907 199.666 57.048C199.783 56.9947 199.89 56.9467 199.986 56.904C200.082 56.8507 200.162 56.808 200.226 56.776C200.3 56.7333 200.359 56.7013 200.402 56.68C200.444 56.648 200.466 56.632 200.466 56.632V55.08L198.402 55.24C198.263 55.2507 198.146 55.288 198.05 55.352C197.954 55.4053 197.879 55.4747 197.826 55.56C197.783 55.6453 197.751 55.7307 197.73 55.816C197.719 55.9013 197.714 55.9973 197.714 56.104V56.52Z" fill="#005EA3"/>
<path d="M204.411 59V50.504H206.299L206.651 51.576C207.451 50.808 208.261 50.424 209.083 50.424C209.541 50.424 209.856 50.456 210.027 50.52V52.68C209.728 52.648 209.317 52.632 208.795 52.632C208.293 52.632 207.872 52.7013 207.531 52.84C207.2 52.968 206.907 53.2133 206.651 53.576V59H204.411Z" fill="#005EA3"/>
<path d="M211.354 54.712C211.354 53.976 211.397 53.3627 211.482 52.872C211.578 52.3707 211.712 51.96 211.882 51.64C212.053 51.3093 212.293 51.0587 212.602 50.888C212.912 50.7173 213.253 50.6 213.626 50.536C214.01 50.472 214.49 50.44 215.066 50.44C215.45 50.44 215.776 50.4507 216.042 50.472C216.309 50.4827 216.576 50.5147 216.842 50.568C217.12 50.6107 217.344 50.68 217.514 50.776C217.685 50.8613 217.85 50.984 218.01 51.144C218.17 51.2933 218.293 51.48 218.378 51.704C218.474 51.9173 218.544 52.1787 218.586 52.488C218.64 52.7867 218.666 53.1333 218.666 53.528C218.666 54.2747 218.469 54.8187 218.074 55.16C217.68 55.5013 217.088 55.672 216.298 55.672H213.594C213.594 56.1627 213.664 56.5307 213.802 56.776C213.952 57.0107 214.133 57.1547 214.346 57.208C214.57 57.2613 214.917 57.288 215.386 57.288C216.698 57.288 217.738 57.2293 218.506 57.112V58.632C217.706 58.9307 216.256 59.08 214.154 59.08C213.61 59.08 213.157 59 212.794 58.84C212.442 58.68 212.16 58.4187 211.946 58.056C211.733 57.6933 211.578 57.2453 211.482 56.712C211.397 56.1787 211.354 55.512 211.354 54.712ZM213.594 54.056H215.722C216.192 54.056 216.426 53.8427 216.426 53.416C216.426 52.8827 216.352 52.5413 216.202 52.392C216.064 52.232 215.728 52.152 215.194 52.152C214.853 52.152 214.597 52.168 214.426 52.2C214.266 52.2213 214.106 52.296 213.946 52.424C213.797 52.5413 213.696 52.728 213.642 52.984C213.6 53.24 213.584 53.5973 213.594 54.056Z" fill="#005EA3"/>
</svg>
